<svg width="2388" height="457" viewBox="0 0 2388 457" fill="none" xmlns="http://www.w3.org/2000/svg">
<rect width="2388" height="457" fill="#1E1E1E"/>
<path d="M0 295V-1.66893e-05H15V295H0ZM30 295V-1.66893e-05H75V295H30ZM90 295V-1.66893e-05H105V295H90ZM150 295V-1.66893e-05H165V295H150ZM180 295V-1.66893e-05H225V295H180ZM82.5 338.5H115.5C128.167 338.5 137.667 341 144 346C150.667 351 154 358 154 367C154 372.667 152.5 377.833 149.5 382.5C146.167 387.167 141.833 390.5 136.5 392.5C143.167 394.833 148.5 398.667 152.5 404C156.5 409.667 158.5 415.667 158.5 422C158.5 432 154.833 440 147.5 446C140.5 451.667 129.667 454.5 115 454.5H82.5V338.5ZM113.5 386.5C131.833 386.5 141 380.333 141 368C141 362.667 138.833 358.333 134.5 355C130.5 351.333 124.167 349.5 115.5 349.5H95V386.5H113.5ZM117.5 443C135.5 443 144.5 435.667 144.5 421C144.5 405.333 134.333 397.5 114 397.5H95V443H117.5ZM240.234 295V-1.66893e-05H285.234V295H240.234ZM300.234 295V-1.66893e-05H315.234V295H300.234ZM330.234 295V-1.66893e-05H375.234V295H330.234ZM390.234 295V-1.66893e-05H405.234V295H390.234ZM450.234 295V-1.66893e-05H465.234V295H450.234ZM360.234 456.5C346.901 456.5 336.734 451.333 329.734 441C322.401 430.667 318.734 416 318.734 397C318.734 378.667 322.401 364.167 329.734 353.5C337.068 343.167 347.234 338 360.234 338C373.234 338 383.401 343.167 390.734 353.5C398.068 364.167 401.734 378.667 401.734 397C401.734 416 398.068 430.667 390.734 441C383.734 451.333 373.568 456.5 360.234 456.5ZM360.234 445C369.234 445 376.068 441 380.734 433C385.734 424.667 388.234 412.667 388.234 397C388.234 382.333 385.734 370.667 380.734 362C375.734 353.667 368.901 349.5 360.234 349.5C351.568 349.5 344.734 353.667 339.734 362C334.734 370.667 332.234 382.333 332.234 397C332.234 412.667 334.568 424.667 339.234 433C344.234 441 351.234 445 360.234 445ZM480.469 295V-1.66893e-05H525.469V295H480.469ZM570.469 295V-1.66893e-05H585.469V295H570.469ZM600.469 295V-1.66893e-05H615.469V295H600.469ZM630.469 295V-1.66893e-05H645.469V295H630.469ZM660.469 295V-1.66893e-05H705.469V295H660.469ZM600.469 456.5C588.469 456.5 579.302 452.833 572.969 445.5C566.635 438.167 563.469 427.833 563.469 414.5V338.5H577.969V340C576.969 340.667 576.469 341.5 576.469 342.5C576.135 343.167 575.969 344.667 575.969 347V414.5C575.969 424.5 577.969 432.167 581.969 437.5C585.635 442.833 591.969 445.5 600.969 445.5C609.635 445.5 615.969 442.833 619.969 437.5C623.969 432.167 625.969 424.333 625.969 414V338.5H638.469V414C638.469 428.333 635.135 439 628.469 446C621.802 453 612.469 456.5 600.469 456.5ZM720.703 295V-1.66893e-05H765.703V295H720.703ZM780.703 295V-1.66893e-05H795.703V295H780.703ZM810.703 295V-1.66893e-05H825.703V295H810.703ZM840.703 295V-1.66893e-05H855.703V295H840.703ZM900.703 295V-1.66893e-05H945.703V295H900.703ZM825.203 396.5L815.703 406.5V454.5H802.203V338.5H817.703V340C817.036 340.667 816.536 341.5 816.203 342.5C815.87 343.167 815.703 344.667 815.703 347V392L864.203 338C867.203 338.333 870.37 338.5 873.703 338.5H878.703L834.703 388.5L881.703 454.5L865.203 455L825.203 396.5ZM960.938 295V-1.66893e-05H1005.94V295H960.938ZM1020.94 295V-1.66893e-05H1035.94V295H1020.94ZM1050.94 295V-1.66893e-05H1095.94V295H1050.94ZM1140.94 295V-1.66893e-05H1155.94V295H1140.94ZM1170.94 295V-1.66893e-05H1185.94V295H1170.94ZM1045.44 338.5H1116.44V350H1057.44V388H1106.44V400H1057.44V443H1115.94V454.5H1045.44V338.5ZM1201.17 295V-1.66893e-05H1246.17V295H1201.17ZM1261.17 295V-1.66893e-05H1276.17V295H1261.17ZM1291.17 295V-1.66893e-05H1306.17V295H1291.17ZM1321.17 295V-1.66893e-05H1366.17V295H1321.17ZM1411.17 295V-1.66893e-05H1426.17V295H1411.17ZM1285.17 338.5H1319.17C1332.51 338.5 1342.17 341.5 1348.17 347.5C1354.51 353.167 1357.67 361.333 1357.67 372C1357.67 378.667 1355.51 385 1351.17 391C1346.84 397 1341.17 401 1334.17 403L1361.17 454.5H1346.67L1320.67 403.5H1298.17V454.5H1285.17V338.5ZM1320.67 392C1328.67 392 1334.67 390.167 1338.67 386.5C1342.34 383.167 1344.17 378.333 1344.17 372C1344.17 365.667 1342.34 360.5 1338.67 356.5C1334.67 352.833 1328.67 351 1320.67 351H1298.17V392H1320.67ZM1441.41 295V-1.66893e-05H1456.41V295H1441.41ZM1501.41 295V-1.66893e-05H1546.41V295H1501.41ZM1561.41 295V-1.66893e-05H1606.41V295H1561.41ZM1621.41 295V-1.66893e-05H1636.41V295H1621.41ZM1651.41 295V-1.66893e-05H1666.41V295H1651.41ZM1524.41 445.5L1582.41 350.5H1526.41V338.5H1597.91V348L1540.41 443H1592.91C1594.91 443 1596.41 442.833 1597.41 442.5C1598.07 442.167 1598.91 441.667 1599.91 441H1600.91V454.5H1524.41V445.5ZM1681.64 295V-1.66893e-05H1726.64V295H1681.64ZM1741.64 295V-1.66893e-05H1756.64V295H1741.64ZM1771.64 295V-1.66893e-05H1786.64V295H1771.64ZM1831.64 295V-1.66893e-05H1846.64V295H1831.64ZM1861.64 295V-1.66893e-05H1906.64V295H1861.64ZM1820.14 420.5H1782.64L1771.14 454.5H1758.14L1800.64 336.5H1802.14L1845.14 454.5H1831.64L1820.14 420.5ZM1816.64 410.5L1801.64 366.5L1786.14 410.5H1816.64ZM1921.88 295V-1.66893e-05H1936.88V295H1921.88ZM1981.88 295V-1.66893e-05H2026.88V295H1981.88ZM2041.88 295V-1.66893e-05H2086.88V295H2041.88ZM2101.88 295V-1.66893e-05H2116.88V295H2101.88ZM2131.88 295V-1.66893e-05H2146.88V295H2131.88ZM2004.88 445.5L2062.88 350.5H2006.88V338.5H2078.38V348L2020.88 443H2073.38C2075.38 443 2076.88 442.833 2077.88 442.5C2078.54 442.167 2079.38 441.667 2080.38 441H2081.38V454.5H2004.88V445.5ZM2162.11 295V-1.66893e-05H2207.11V295H2162.11ZM2222.11 295V-1.66893e-05H2237.11V295H2222.11ZM2252.11 295V-1.66893e-05H2267.11V295H2252.11ZM2312.11 295V-1.66893e-05H2327.11V295H2312.11ZM2342.11 295V-1.66893e-05H2387.11V295H2342.11ZM2300.61 420.5H2263.11L2251.61 454.5H2238.61L2281.11 336.5H2282.61L2325.61 454.5H2312.11L2300.61 420.5ZM2297.11 410.5L2282.11 366.5L2266.61 410.5H2297.11Z" fill="#DAC5A7"/>
</svg>
